# xmcd CD database file
#
# Track frame offsets:
#	150
#	12979
#	21792
#	33556
#	47109
#	56054
#	69715
#	87166
#	106322
#	108357
#
# Disc length: 1796 seconds
#
# Revision: 0
# Processed by: cddbd v1.5.2PL0 Copyright (c) Steve Scherf et al.
# Submitted via: CDex 2.20
#
DISCID=8107020a
DTITLE=Dizzy Gillespie and Charlie Parker - Diz 'N' Bird In Concert
DYEAR=1959
DGENRE=Jazz
TTITLE0=A Night In Tunesia (Part I)
TTITLE1=A Night In Tunesia (Part II)
TTITLE2=Dizzy Atmosphere
TTITLE3=Groovin' High (Part I)
TTITLE4=Groovin' High (Part II)
TTITLE5=Confirmation
TTITLE6=Swing Low Sweet Cadillac
TTITLE7=Tin Tin Deo
TTITLE8=Ooh Shoobee Doobee
TTITLE9=School Days
EXTD=YEAR: 1959
EXTT0=
EXTT1=
EXTT2=
EXTT3=
EXTT4=
EXTT5=
EXTT6=
EXTT7=
EXTT8=
EXTT9=
PLAYORDER=
